<svg width="42" height="42" viewBox="0 0 42 42" fill="#000000" xmlns="http://www.w3.org/2000/svg">
  <path d="M31.6225 18.06C31.29 18.06 30.9575 17.9375 30.695 17.675L21 7.98002L11.305 17.675C10.7975 18.1825 9.95746 18.1825 9.44996 17.675C8.94246 17.1675 8.94246 16.3275 9.44996 15.82L20.0725 5.19752C20.58 4.69002 21.42 4.69002 21.9275 5.19752L32.55 15.82C33.0575 16.3275 33.0575 17.1675 32.55 17.675C32.305 17.9375 31.955 18.06 31.6225 18.06Z" fill="#FFFFFF" />
  <path d="M21 37.1875C20.2825 37.1875 19.6875 36.5925 19.6875 35.875V6.42249C19.6875 5.70499 20.2825 5.10999 21 5.10999C21.7175 5.10999 22.3125 5.70499 22.3125 6.42249V35.875C22.3125 36.5925 21.7175 37.1875 21 37.1875Z" fill="#FFFFFF" />
</svg>
