<svg width="1440" height="744" viewBox="0 0 1440 744" fill="none" xmlns="http://www.w3.org/2000/svg">
<g clip-path="url(#clip0_36_1571)">
<rect width="1440" height="744" fill="#156AD4"/>
<g opacity="0.1">
<path d="M1440 124.301C1360.02 124.301 1360.02 37.1746 1280.04 37.1746C1200.06 37.1746 1200.06 124.301 1120.08 124.301C1040.09 124.301 1040.09 37.1746 960.114 37.1746C880.133 37.1746 880.133 124.301 800.152 124.301C720.171 124.301 720.171 37.1746 640.19 37.1746C560.209 37.1746 560.209 124.301 480.228 124.301C400.247 124.301 400.247 37.1746 320.266 37.1746C240.285 37.1746 240.285 124.301 160.133 124.301C80.1519 124.301 80.1519 37.1746 0 37.1746" stroke="white" stroke-width="14.2971" stroke-miterlimit="10" stroke-linecap="round"/>
<path d="M1440 271.476C1360.02 271.476 1360.02 184.349 1280.04 184.349C1200.06 184.349 1200.06 271.476 1120.08 271.476C1040.09 271.476 1040.09 184.349 960.114 184.349C880.133 184.349 880.133 271.476 800.152 271.476C720.171 271.476 720.171 184.349 640.19 184.349C560.209 184.349 560.209 271.476 480.228 271.476C400.247 271.476 400.247 184.349 320.266 184.349C240.285 184.349 240.285 271.476 160.133 271.476C80.1519 271.476 80.1519 184.349 0 184.349" stroke="white" stroke-width="14.2971" stroke-miterlimit="10" stroke-linecap="round"/>
<path d="M1440 418.651C1360.02 418.651 1360.02 331.524 1280.04 331.524C1200.06 331.524 1200.06 418.651 1120.08 418.651C1040.09 418.651 1040.09 331.524 960.114 331.524C880.133 331.524 880.133 418.651 800.152 418.651C720.171 418.651 720.171 331.524 640.19 331.524C560.209 331.524 560.209 418.651 480.228 418.651C400.247 418.651 400.247 331.524 320.266 331.524C240.285 331.524 240.285 418.651 160.133 418.651C80.1519 418.651 80.1519 331.524 0 331.524" stroke="white" stroke-width="14.2971" stroke-miterlimit="10" stroke-linecap="round"/>
<path d="M1440 565.825C1360.02 565.825 1360.02 478.698 1280.04 478.698C1200.06 478.698 1200.06 565.825 1120.08 565.825C1040.09 565.825 1040.09 478.698 960.114 478.698C880.133 478.698 880.133 565.825 800.152 565.825C720.171 565.825 720.171 478.698 640.19 478.698C560.209 478.698 560.209 565.825 480.228 565.825C400.247 565.825 400.247 478.698 320.266 478.698C240.285 478.698 240.285 565.825 160.133 565.825C80.1519 565.825 80.1519 478.698 0 478.698" stroke="white" stroke-width="14.2971" stroke-miterlimit="10" stroke-linecap="round"/>
<path d="M1440 713C1360.02 713 1360.02 625.873 1280.04 625.873C1200.06 625.873 1200.06 713 1120.08 713C1040.09 713 1040.09 625.873 960.114 625.873C880.133 625.873 880.133 713 800.152 713C720.171 713 720.171 625.873 640.19 625.873C560.209 625.873 560.209 713 480.228 713C400.247 713 400.247 625.873 320.266 625.873C240.285 625.873 240.285 713 160.133 713C80.1519 713 80.1519 625.873 0 625.873" stroke="white" stroke-width="14.2971" stroke-miterlimit="10" stroke-linecap="round"/>
</g>
<rect x="422" y="126" width="595" height="140" rx="70" fill="#FF772A"/>
<path d="M206.169 233V165.8H220.569V218.6H246.969V233H206.169ZM254.664 233V165.8H297.48V180.2H269.064V189.8H290.952V204.2H269.064V218.6H297.48V233H254.664ZM356.008 165.8V180.2H336.808V233H322.408V180.2H303.208V165.8H356.008ZM359.837 190.856V165.8H369.437V190.856H359.837ZM399.788 234.248C396.012 234.248 392.396 233.656 388.94 232.472C385.484 231.256 382.46 229.528 379.868 227.288C377.276 225.016 375.404 222.312 374.252 219.176L387.788 214.184C388.108 215.112 388.812 216.008 389.9 216.872C391.02 217.736 392.428 218.456 394.124 219.032C395.82 219.576 397.708 219.848 399.788 219.848C401.708 219.848 403.516 219.576 405.212 219.032C406.908 218.456 408.284 217.672 409.34 216.68C410.396 215.688 410.924 214.536 410.924 213.224C410.924 211.88 410.364 210.776 409.244 209.912C408.156 209.016 406.748 208.312 405.02 207.8C403.324 207.256 401.58 206.856 399.788 206.6C394.924 205.896 390.556 204.744 386.684 203.144C382.844 201.512 379.804 199.272 377.564 196.424C375.356 193.576 374.252 189.96 374.252 185.576C374.252 181.384 375.436 177.72 377.804 174.584C380.172 171.416 383.292 168.952 387.164 167.192C391.068 165.432 395.276 164.552 399.788 164.552C403.564 164.552 407.18 165.16 410.636 166.376C414.124 167.56 417.164 169.288 419.756 171.56C422.348 173.832 424.204 176.552 425.324 179.72L411.788 184.616C411.468 183.688 410.748 182.808 409.628 181.976C408.54 181.112 407.148 180.408 405.452 179.864C403.756 179.32 401.868 179.048 399.788 179.048C397.932 179.016 396.156 179.288 394.46 179.864C392.764 180.44 391.372 181.224 390.284 182.216C389.196 183.208 388.652 184.328 388.652 185.576C388.652 187.304 389.164 188.6 390.188 189.464C391.212 190.296 392.556 190.888 394.22 191.24C395.916 191.592 397.772 191.912 399.788 192.2C404.396 192.872 408.636 194.072 412.508 195.8C416.38 197.528 419.484 199.832 421.82 202.712C424.156 205.592 425.324 209.096 425.324 213.224C425.324 217.416 424.14 221.096 421.772 224.264C419.436 227.4 416.332 229.848 412.46 231.608C408.588 233.368 404.364 234.248 399.788 234.248ZM453.171 233L466.227 165.8H478.515L493.587 205.448L508.659 165.8H520.947L534.003 233H519.315L512.307 196.712L498.579 233H488.595L474.867 196.712L467.859 233H453.171ZM559.38 165.8H575.604L599.988 233H584.724L580.884 222.44H554.1L550.26 233H534.996L559.38 165.8ZM559.38 208.04H575.604L567.444 185.768L559.38 208.04ZM632.077 234.248C627.373 234.248 623.005 233.336 618.973 231.512C614.973 229.688 611.485 227.176 608.509 223.976C605.533 220.744 603.213 217.016 601.549 212.792C599.885 208.568 599.053 204.072 599.053 199.304C599.053 194.152 599.965 189.464 601.789 185.24C603.645 181.016 606.141 177.368 609.277 174.296C612.445 171.192 616.013 168.808 619.981 167.144C623.981 165.48 628.109 164.648 632.365 164.648C637.037 164.648 641.645 165.736 646.189 167.912C650.733 170.088 654.829 173.608 658.477 178.472L645.613 185.384C643.661 183.176 641.517 181.56 639.181 180.536C636.877 179.48 634.541 178.952 632.173 178.952C629.773 178.952 627.453 179.448 625.213 180.44C622.973 181.432 620.973 182.84 619.213 184.664C617.453 186.488 616.045 188.664 614.989 191.192C613.965 193.72 613.453 196.52 613.453 199.592C613.453 202.408 613.933 205.048 614.893 207.512C615.885 209.976 617.245 212.136 618.973 213.992C620.701 215.816 622.701 217.256 624.973 218.312C627.245 219.336 629.677 219.848 632.269 219.848C633.741 219.848 635.197 219.656 636.637 219.272C638.109 218.856 639.533 218.248 640.909 217.448C642.285 216.648 643.581 215.624 644.797 214.376C646.013 213.128 647.117 211.656 648.109 209.96H639.085V197.48H665.101C665.357 202.504 664.669 207.24 663.037 211.688C661.437 216.104 659.117 220.008 656.077 223.4C653.037 226.792 649.469 229.448 645.373 231.368C641.277 233.288 636.845 234.248 632.077 234.248ZM670.468 233V165.8H686.02L710.596 206.984V165.8H724.996V233H709.444L684.868 191.816V233H670.468ZM733.682 233V165.8H776.498V180.2H748.082V189.8H769.97V204.2H748.082V218.6H776.498V233H733.682ZM835.026 165.8V180.2H815.826V233H801.426V180.2H782.226V165.8H835.026ZM843.174 233V165.8H857.574V233H843.174ZM865.716 233V218.6L900.564 180.2H865.716V165.8H920.052V180.2L885.204 218.6H920.052V233H865.716ZM926.724 233V165.8H969.54V180.2H941.124V189.8H963.012V204.2H941.124V218.6H969.54V233H926.724ZM1038.55 165.8H1055.55L1032.22 202.76V233H1017.82V202.76L994.491 165.8H1011.48L1025.02 187.112L1038.55 165.8ZM1086.82 234.248C1082.27 234.248 1078 233.352 1074 231.56C1070 229.736 1066.48 227.224 1063.44 224.024C1060.4 220.824 1058.02 217.128 1056.29 212.936C1054.56 208.712 1053.7 204.2 1053.7 199.4C1053.7 194.6 1054.56 190.104 1056.29 185.912C1058.02 181.688 1060.4 177.976 1063.44 174.776C1066.48 171.576 1070 169.08 1074 167.288C1078 165.464 1082.27 164.552 1086.82 164.552C1091.39 164.552 1095.68 165.464 1099.68 167.288C1103.68 169.08 1107.2 171.576 1110.24 174.776C1113.28 177.976 1115.65 181.688 1117.34 185.912C1119.07 190.104 1119.94 194.6 1119.94 199.4C1119.94 204.2 1119.07 208.712 1117.34 212.936C1115.65 217.128 1113.28 220.824 1110.24 224.024C1107.2 227.224 1103.68 229.736 1099.68 231.56C1095.68 233.352 1091.39 234.248 1086.82 234.248ZM1086.82 219.848C1089.38 219.848 1091.78 219.32 1094.02 218.264C1096.29 217.176 1098.29 215.704 1100.02 213.848C1101.74 211.96 1103.09 209.784 1104.05 207.32C1105.04 204.856 1105.54 202.216 1105.54 199.4C1105.54 196.584 1105.04 193.944 1104.05 191.48C1103.09 189.016 1101.74 186.856 1100.02 185C1098.29 183.112 1096.29 181.64 1094.02 180.584C1091.78 179.496 1089.38 178.952 1086.82 178.952C1084.26 178.952 1081.84 179.496 1079.57 180.584C1077.33 181.64 1075.34 183.112 1073.62 185C1071.89 186.856 1070.53 189.016 1069.54 191.48C1068.58 193.944 1068.1 196.584 1068.1 199.4C1068.1 202.216 1068.58 204.856 1069.54 207.32C1070.53 209.784 1071.89 211.96 1073.62 213.848C1075.34 215.704 1077.33 217.176 1079.57 218.264C1081.84 219.32 1084.26 219.848 1086.82 219.848ZM1152.94 234.248C1147.56 234.248 1142.81 232.936 1138.68 230.312C1134.59 227.688 1131.37 224.168 1129.04 219.752C1126.73 215.304 1125.58 210.376 1125.58 204.968V165.8H1139.98V204.968C1139.98 207.688 1140.49 210.184 1141.52 212.456C1142.54 214.696 1144.01 216.488 1145.93 217.832C1147.88 219.176 1150.22 219.848 1152.94 219.848C1155.69 219.848 1158.03 219.192 1159.95 217.88C1161.87 216.536 1163.32 214.744 1164.32 212.504C1165.31 210.232 1165.8 207.72 1165.8 204.968V165.8H1180.2V204.968C1180.2 209.032 1179.55 212.84 1178.24 216.392C1176.92 219.912 1175.05 223.016 1172.62 225.704C1170.19 228.392 1167.31 230.488 1163.98 231.992C1160.65 233.496 1156.97 234.248 1152.94 234.248ZM1187.48 233V165.8H1214.84C1218.52 165.8 1221.85 166.728 1224.82 168.584C1227.8 170.44 1230.15 172.936 1231.88 176.072C1233.64 179.176 1234.52 182.6 1234.52 186.344C1234.52 189.224 1234.04 191.912 1233.08 194.408C1232.12 196.872 1230.74 199.064 1228.95 200.984C1227.19 202.872 1225.11 204.392 1222.71 205.544L1238.65 233H1222.04L1206.87 206.888H1201.88V233H1187.48ZM1201.88 192.488H1213.11C1214.39 192.488 1215.56 192.168 1216.62 191.528C1217.67 190.856 1218.52 189.976 1219.16 188.888C1219.8 187.8 1220.12 186.6 1220.12 185.288C1220.12 183.976 1219.8 182.776 1219.16 181.688C1218.52 180.6 1217.67 179.736 1216.62 179.096C1215.56 178.424 1214.39 178.088 1213.11 178.088H1201.88V192.488ZM133.301 349.248C128.757 349.248 124.485 348.352 120.485 346.56C116.485 344.736 112.965 342.224 109.925 339.024C106.885 335.824 104.501 332.128 102.773 327.936C101.045 323.712 100.181 319.2 100.181 314.4C100.181 309.6 101.045 305.104 102.773 300.912C104.501 296.688 106.885 292.976 109.925 289.776C112.965 286.576 116.485 284.08 120.485 282.288C124.485 280.464 128.757 279.552 133.301 279.552C137.877 279.552 142.165 280.464 146.165 282.288C150.165 284.08 153.685 286.576 156.725 289.776C159.765 292.976 162.133 296.688 163.829 300.912C165.557 305.104 166.421 309.6 166.421 314.4C166.421 319.2 165.557 323.712 163.829 327.936C162.133 332.128 159.765 335.824 156.725 339.024C153.685 342.224 150.165 344.736 146.165 346.56C142.165 348.352 137.877 349.248 133.301 349.248ZM133.301 334.848C135.861 334.848 138.261 334.32 140.501 333.264C142.773 332.176 144.773 330.704 146.501 328.848C148.229 326.96 149.573 324.784 150.533 322.32C151.525 319.856 152.021 317.216 152.021 314.4C152.021 311.584 151.525 308.944 150.533 306.48C149.573 304.016 148.229 301.856 146.501 300C144.773 298.112 142.773 296.64 140.501 295.584C138.261 294.496 135.861 293.952 133.301 293.952C130.741 293.952 128.325 294.496 126.053 295.584C123.813 296.64 121.829 298.112 120.101 300C118.373 301.856 117.013 304.016 116.021 306.48C115.061 308.944 114.581 311.584 114.581 314.4C114.581 317.216 115.061 319.856 116.021 322.32C117.013 324.784 118.373 326.96 120.101 328.848C121.829 330.704 123.813 332.176 126.053 333.264C128.325 334.32 130.741 334.848 133.301 334.848ZM171.69 348V280.8H187.242L211.818 321.984V280.8H226.218V348H210.666L186.09 306.816V348H171.69ZM234.904 348V280.8H249.304V333.6H275.704V348H234.904ZM284.839 348V280.8H299.239V348H284.839ZM309.3 348V280.8H324.852L349.428 321.984V280.8H363.828V348H348.276L323.7 306.816V348H309.3ZM372.514 348V280.8H415.33V295.2H386.914V304.8H408.802V319.2H386.914V333.6H415.33V348H372.514ZM443.16 348V280.8H468.504C472.184 280.8 475.512 281.744 478.488 283.632C481.496 285.488 483.88 287.984 485.64 291.12C487.4 294.224 488.28 297.632 488.28 301.344C488.28 305.12 487.368 308.56 485.544 311.664C483.752 314.768 481.352 317.248 478.344 319.104C475.336 320.96 472.056 321.888 468.504 321.888H457.56V348H443.16ZM457.56 307.488H466.872C468.152 307.488 469.32 307.168 470.376 306.528C471.432 305.856 472.28 304.976 472.92 303.888C473.56 302.8 473.88 301.6 473.88 300.288C473.88 298.976 473.56 297.776 472.92 296.688C472.28 295.6 471.432 294.736 470.376 294.096C469.32 293.424 468.152 293.088 466.872 293.088H457.56V307.488ZM493.624 348V280.8H520.984C524.664 280.8 527.992 281.728 530.968 283.584C533.944 285.44 536.296 287.936 538.024 291.072C539.784 294.176 540.664 297.6 540.664 301.344C540.664 304.224 540.184 306.912 539.224 309.408C538.264 311.872 536.888 314.064 535.096 315.984C533.336 317.872 531.256 319.392 528.856 320.544L544.792 348H528.184L513.016 321.888H508.024V348H493.624ZM508.024 307.488H519.256C520.536 307.488 521.704 307.168 522.76 306.528C523.816 305.856 524.664 304.976 525.304 303.888C525.944 302.8 526.264 301.6 526.264 300.288C526.264 298.976 525.944 297.776 525.304 296.688C524.664 295.6 523.816 294.736 522.76 294.096C521.704 293.424 520.536 293.088 519.256 293.088H508.024V307.488ZM549.619 348V280.8H592.435V295.2H564.019V304.8H585.907V319.2H564.019V333.6H592.435V348H549.619ZM624.659 349.248C620.883 349.248 617.267 348.656 613.811 347.472C610.355 346.256 607.331 344.528 604.739 342.288C602.147 340.016 600.275 337.312 599.123 334.176L612.659 329.184C612.979 330.112 613.683 331.008 614.771 331.872C615.891 332.736 617.299 333.456 618.995 334.032C620.691 334.576 622.579 334.848 624.659 334.848C626.579 334.848 628.387 334.576 630.083 334.032C631.779 333.456 633.155 332.672 634.211 331.68C635.267 330.688 635.795 329.536 635.795 328.224C635.795 326.88 635.235 325.776 634.115 324.912C633.027 324.016 631.619 323.312 629.891 322.8C628.195 322.256 626.451 321.856 624.659 321.6C619.795 320.896 615.427 319.744 611.555 318.144C607.715 316.512 604.675 314.272 602.435 311.424C600.227 308.576 599.123 304.96 599.123 300.576C599.123 296.384 600.307 292.72 602.675 289.584C605.043 286.416 608.163 283.952 612.035 282.192C615.939 280.432 620.147 279.552 624.659 279.552C628.435 279.552 632.051 280.16 635.507 281.376C638.995 282.56 642.035 284.288 644.627 286.56C647.219 288.832 649.075 291.552 650.195 294.72L636.659 299.616C636.339 298.688 635.619 297.808 634.499 296.976C633.411 296.112 632.019 295.408 630.323 294.864C628.627 294.32 626.739 294.048 624.659 294.048C622.803 294.016 621.027 294.288 619.331 294.864C617.635 295.44 616.243 296.224 615.155 297.216C614.067 298.208 613.523 299.328 613.523 300.576C613.523 302.304 614.035 303.6 615.059 304.464C616.083 305.296 617.427 305.888 619.091 306.24C620.787 306.592 622.643 306.912 624.659 307.2C629.267 307.872 633.507 309.072 637.379 310.8C641.251 312.528 644.355 314.832 646.691 317.712C649.027 320.592 650.195 324.096 650.195 328.224C650.195 332.416 649.011 336.096 646.643 339.264C644.307 342.4 641.203 344.848 637.331 346.608C633.459 348.368 629.235 349.248 624.659 349.248ZM657.859 348V280.8H700.675V295.2H672.259V304.8H694.147V319.2H672.259V333.6H700.675V348H657.859ZM708.323 348V280.8H723.875L748.451 321.984V280.8H762.851V348H747.299L722.723 306.816V348H708.323ZM802.64 349.248C798.096 349.248 793.824 348.352 789.824 346.56C785.824 344.736 782.304 342.224 779.264 339.024C776.256 335.824 773.888 332.128 772.16 327.936C770.464 323.712 769.616 319.2 769.616 314.4C769.616 309.568 770.464 305.056 772.16 300.864C773.888 296.64 776.256 292.944 779.264 289.776C782.304 286.576 785.824 284.08 789.824 282.288C793.824 280.464 798.096 279.552 802.64 279.552C808.08 279.552 813.088 280.816 817.664 283.344C822.24 285.84 826.032 289.184 829.04 293.376L816.176 300.288C814.512 298.368 812.512 296.832 810.176 295.68C807.84 294.528 805.328 293.952 802.64 293.952C800.08 293.952 797.664 294.48 795.392 295.536C793.152 296.592 791.168 298.064 789.44 299.952C787.744 301.808 786.416 303.968 785.456 306.432C784.496 308.896 784.016 311.552 784.016 314.4C784.016 317.216 784.496 319.856 785.456 322.32C786.416 324.784 787.744 326.96 789.44 328.848C791.168 330.704 793.152 332.176 795.392 333.264C797.664 334.32 800.08 334.848 802.64 334.848C805.328 334.848 807.84 334.272 810.176 333.12C812.512 331.936 814.512 330.368 816.176 328.416L829.04 335.424C826.032 339.584 822.24 342.928 817.664 345.456C813.088 347.984 808.08 349.248 802.64 349.248ZM834.75 348V280.8H877.566V295.2H849.15V304.8H871.038V319.2H849.15V333.6H877.566V348H834.75ZM921.62 348L904.436 280.8H919.316L929.684 321.504L940.052 280.8H953.3L963.668 321.504L974.036 280.8H988.916L971.828 348H955.604L946.676 313.152L937.844 348H921.62ZM996.206 348V280.8H1010.61V348H996.206ZM1071.55 280.8V295.2H1052.35V348H1037.95V295.2H1018.75V280.8H1071.55ZM1116.46 280.8H1130.86V348H1116.46V319.2H1092.66V348H1078.26V280.8H1092.66V304.8H1116.46V280.8ZM1190.88 349.248C1186.34 349.248 1182.07 348.352 1178.07 346.56C1174.07 344.736 1170.55 342.224 1167.51 339.024C1164.47 335.824 1162.08 332.128 1160.36 327.936C1158.63 323.712 1157.76 319.2 1157.76 314.4C1157.76 309.6 1158.63 305.104 1160.36 300.912C1162.08 296.688 1164.47 292.976 1167.51 289.776C1170.55 286.576 1174.07 284.08 1178.07 282.288C1182.07 280.464 1186.34 279.552 1190.88 279.552C1195.46 279.552 1199.75 280.464 1203.75 282.288C1207.75 284.08 1211.27 286.576 1214.31 289.776C1217.35 292.976 1219.72 296.688 1221.41 300.912C1223.14 305.104 1224 309.6 1224 314.4C1224 319.2 1223.14 323.712 1221.41 327.936C1219.72 332.128 1217.35 335.824 1214.31 339.024C1211.27 342.224 1207.75 344.736 1203.75 346.56C1199.75 348.352 1195.46 349.248 1190.88 349.248ZM1190.88 334.848C1193.44 334.848 1195.84 334.32 1198.08 333.264C1200.36 332.176 1202.36 330.704 1204.08 328.848C1205.81 326.96 1207.16 324.784 1208.12 322.32C1209.11 319.856 1209.6 317.216 1209.6 314.4C1209.6 311.584 1209.11 308.944 1208.12 306.48C1207.16 304.016 1205.81 301.856 1204.08 300C1202.36 298.112 1200.36 296.64 1198.08 295.584C1195.84 294.496 1193.44 293.952 1190.88 293.952C1188.32 293.952 1185.91 294.496 1183.64 295.584C1181.4 296.64 1179.41 298.112 1177.68 300C1175.96 301.856 1174.6 304.016 1173.6 306.48C1172.64 308.944 1172.16 311.584 1172.16 314.4C1172.16 317.216 1172.64 319.856 1173.6 322.32C1174.6 324.784 1175.96 326.96 1177.68 328.848C1179.41 330.704 1181.4 332.176 1183.64 333.264C1185.91 334.32 1188.32 334.848 1190.88 334.848ZM1257.01 349.248C1251.63 349.248 1246.88 347.936 1242.75 345.312C1238.66 342.688 1235.44 339.168 1233.1 334.752C1230.8 330.304 1229.65 325.376 1229.65 319.968V280.8H1244.05V319.968C1244.05 322.688 1244.56 325.184 1245.58 327.456C1246.61 329.696 1248.08 331.488 1250 332.832C1251.95 334.176 1254.29 334.848 1257.01 334.848C1259.76 334.848 1262.1 334.192 1264.02 332.88C1265.94 331.536 1267.39 329.744 1268.38 327.504C1269.38 325.232 1269.87 322.72 1269.87 319.968V280.8H1284.27V319.968C1284.27 324.032 1283.62 327.84 1282.3 331.392C1280.99 334.912 1279.12 338.016 1276.69 340.704C1274.26 343.392 1271.38 345.488 1268.05 346.992C1264.72 348.496 1261.04 349.248 1257.01 349.248ZM1291.55 348V280.8H1318.91C1322.59 280.8 1325.92 281.728 1328.89 283.584C1331.87 285.44 1334.22 287.936 1335.95 291.072C1337.71 294.176 1338.59 297.6 1338.59 301.344C1338.59 304.224 1338.11 306.912 1337.15 309.408C1336.19 311.872 1334.81 314.064 1333.02 315.984C1331.26 317.872 1329.18 319.392 1326.78 320.544L1342.72 348H1326.11L1310.94 321.888H1305.95V348H1291.55ZM1305.95 307.488H1317.18C1318.46 307.488 1319.63 307.168 1320.68 306.528C1321.74 305.856 1322.59 304.976 1323.23 303.888C1323.87 302.8 1324.19 301.6 1324.19 300.288C1324.19 298.976 1323.87 297.776 1323.23 296.688C1322.59 295.6 1321.74 294.736 1320.68 294.096C1319.63 293.424 1318.46 293.088 1317.18 293.088H1305.95V307.488ZM209.851 464.248C205.307 464.248 201.035 463.352 197.035 461.56C193.035 459.736 189.515 457.224 186.475 454.024C183.467 450.824 181.099 447.128 179.371 442.936C177.675 438.712 176.827 434.2 176.827 429.4C176.827 424.568 177.675 420.056 179.371 415.864C181.099 411.64 183.467 407.944 186.475 404.776C189.515 401.576 193.035 399.08 197.035 397.288C201.035 395.464 205.307 394.552 209.851 394.552C215.291 394.552 220.299 395.816 224.875 398.344C229.451 400.84 233.243 404.184 236.251 408.376L223.387 415.288C221.723 413.368 219.723 411.832 217.387 410.68C215.051 409.528 212.539 408.952 209.851 408.952C207.291 408.952 204.875 409.48 202.603 410.536C200.363 411.592 198.379 413.064 196.651 414.952C194.955 416.808 193.627 418.968 192.667 421.432C191.707 423.896 191.227 426.552 191.227 429.4C191.227 432.216 191.707 434.856 192.667 437.32C193.627 439.784 194.955 441.96 196.651 443.848C198.379 445.704 200.363 447.176 202.603 448.264C204.875 449.32 207.291 449.848 209.851 449.848C212.539 449.848 215.051 449.272 217.387 448.12C219.723 446.936 221.723 445.368 223.387 443.416L236.251 450.424C233.243 454.584 229.451 457.928 224.875 460.456C220.299 462.984 215.291 464.248 209.851 464.248ZM241.961 463V395.8H269.321C273.001 395.8 276.329 396.728 279.305 398.584C282.281 400.44 284.633 402.936 286.361 406.072C288.121 409.176 289.001 412.6 289.001 416.344C289.001 419.224 288.521 421.912 287.561 424.408C286.601 426.872 285.225 429.064 283.433 430.984C281.673 432.872 279.593 434.392 277.193 435.544L293.129 463H276.521L261.353 436.888H256.361V463H241.961ZM256.361 422.488H267.593C268.873 422.488 270.041 422.168 271.097 421.528C272.153 420.856 273.001 419.976 273.641 418.888C274.281 417.8 274.601 416.6 274.601 415.288C274.601 413.976 274.281 412.776 273.641 411.688C273.001 410.6 272.153 409.736 271.097 409.096C270.041 408.424 268.873 408.088 267.593 408.088H256.361V422.488ZM297.956 463V395.8H340.772V410.2H312.356V419.8H334.244V434.2H312.356V448.6H340.772V463H297.956ZM368.915 395.8H385.139L409.523 463H394.259L390.419 452.44H363.635L359.795 463H344.531L368.915 395.8ZM368.915 438.04H385.139L376.979 415.768L368.915 438.04ZM457.451 395.8V410.2H438.251V463H423.851V410.2H404.651V395.8H457.451ZM465.6 463V395.8H480V463H465.6ZM513.485 463L489.101 395.8H504.365L522.797 446.488L541.229 395.8H556.493L532.109 463H513.485ZM562.275 463V395.8H605.091V410.2H576.675V419.8H598.563V434.2H576.675V448.6H605.091V463H562.275ZM632.921 463V395.8H658.265C661.945 395.8 665.273 396.744 668.249 398.632C671.257 400.488 673.641 402.984 675.401 406.12C677.161 409.224 678.041 412.632 678.041 416.344C678.041 420.12 677.129 423.56 675.305 426.664C673.513 429.768 671.113 432.248 668.105 434.104C665.097 435.96 661.817 436.888 658.265 436.888H647.321V463H632.921ZM647.321 422.488H656.633C657.913 422.488 659.081 422.168 660.137 421.528C661.193 420.856 662.041 419.976 662.681 418.888C663.321 417.8 663.641 416.6 663.641 415.288C663.641 413.976 663.321 412.776 662.681 411.688C662.041 410.6 661.193 409.736 660.137 409.096C659.081 408.424 657.913 408.088 656.633 408.088H647.321V422.488ZM683.385 463V395.8H710.745C714.425 395.8 717.753 396.728 720.729 398.584C723.705 400.44 726.057 402.936 727.785 406.072C729.545 409.176 730.425 412.6 730.425 416.344C730.425 419.224 729.945 421.912 728.985 424.408C728.025 426.872 726.649 429.064 724.857 430.984C723.097 432.872 721.017 434.392 718.617 435.544L734.553 463H717.945L702.777 436.888H697.785V463H683.385ZM697.785 422.488H709.017C710.297 422.488 711.465 422.168 712.521 421.528C713.577 420.856 714.425 419.976 715.065 418.888C715.705 417.8 716.025 416.6 716.025 415.288C716.025 413.976 715.705 412.776 715.065 411.688C714.425 410.6 713.577 409.736 712.521 409.096C711.465 408.424 710.297 408.088 709.017 408.088H697.785V422.488ZM768.611 464.248C764.067 464.248 759.795 463.352 755.795 461.56C751.795 459.736 748.275 457.224 745.235 454.024C742.195 450.824 739.811 447.128 738.083 442.936C736.355 438.712 735.491 434.2 735.491 429.4C735.491 424.6 736.355 420.104 738.083 415.912C739.811 411.688 742.195 407.976 745.235 404.776C748.275 401.576 751.795 399.08 755.795 397.288C759.795 395.464 764.067 394.552 768.611 394.552C773.187 394.552 777.475 395.464 781.475 397.288C785.475 399.08 788.995 401.576 792.035 404.776C795.075 407.976 797.443 411.688 799.139 415.912C800.867 420.104 801.731 424.6 801.731 429.4C801.731 434.2 800.867 438.712 799.139 442.936C797.443 447.128 795.075 450.824 792.035 454.024C788.995 457.224 785.475 459.736 781.475 461.56C777.475 463.352 773.187 464.248 768.611 464.248ZM768.611 449.848C771.171 449.848 773.571 449.32 775.811 448.264C778.083 447.176 780.083 445.704 781.811 443.848C783.539 441.96 784.883 439.784 785.843 437.32C786.835 434.856 787.331 432.216 787.331 429.4C787.331 426.584 786.835 423.944 785.843 421.48C784.883 419.016 783.539 416.856 781.811 415C780.083 413.112 778.083 411.64 775.811 410.584C773.571 409.496 771.171 408.952 768.611 408.952C766.051 408.952 763.635 409.496 761.363 410.584C759.123 411.64 757.139 413.112 755.411 415C753.683 416.856 752.323 419.016 751.331 421.48C750.371 423.944 749.891 426.584 749.891 429.4C749.891 432.216 750.371 434.856 751.331 437.32C752.323 439.784 753.683 441.96 755.411 443.848C757.139 445.704 759.123 447.176 761.363 448.264C763.635 449.32 766.051 449.848 768.611 449.848ZM820.786 463L803.602 395.8H818.482L828.85 436.504L839.218 395.8H852.466L862.834 436.504L873.202 395.8H888.082L870.994 463H854.77L845.842 428.152L837.01 463H820.786ZM893.932 463V395.8H936.748V410.2H908.332V419.8H930.22V434.2H908.332V448.6H936.748V463H893.932ZM968.972 464.248C965.196 464.248 961.58 463.656 958.124 462.472C954.668 461.256 951.644 459.528 949.052 457.288C946.46 455.016 944.588 452.312 943.436 449.176L956.972 444.184C957.292 445.112 957.996 446.008 959.084 446.872C960.204 447.736 961.612 448.456 963.308 449.032C965.004 449.576 966.892 449.848 968.972 449.848C970.892 449.848 972.7 449.576 974.396 449.032C976.092 448.456 977.468 447.672 978.524 446.68C979.58 445.688 980.108 444.536 980.108 443.224C980.108 441.88 979.548 440.776 978.428 439.912C977.34 439.016 975.932 438.312 974.204 437.8C972.508 437.256 970.764 436.856 968.972 436.6C964.108 435.896 959.74 434.744 955.868 433.144C952.028 431.512 948.988 429.272 946.748 426.424C944.54 423.576 943.436 419.96 943.436 415.576C943.436 411.384 944.62 407.72 946.988 404.584C949.356 401.416 952.476 398.952 956.348 397.192C960.252 395.432 964.46 394.552 968.972 394.552C972.748 394.552 976.364 395.16 979.82 396.376C983.308 397.56 986.348 399.288 988.94 401.56C991.532 403.832 993.388 406.552 994.508 409.72L980.972 414.616C980.652 413.688 979.932 412.808 978.812 411.976C977.724 411.112 976.332 410.408 974.636 409.864C972.94 409.32 971.052 409.048 968.972 409.048C967.116 409.016 965.34 409.288 963.644 409.864C961.948 410.44 960.556 411.224 959.468 412.216C958.38 413.208 957.836 414.328 957.836 415.576C957.836 417.304 958.348 418.6 959.372 419.464C960.396 420.296 961.74 420.888 963.404 421.24C965.1 421.592 966.956 421.912 968.972 422.2C973.58 422.872 977.82 424.072 981.692 425.8C985.564 427.528 988.668 429.832 991.004 432.712C993.34 435.592 994.508 439.096 994.508 443.224C994.508 447.416 993.324 451.096 990.956 454.264C988.62 457.4 985.516 459.848 981.644 461.608C977.772 463.368 973.548 464.248 968.972 464.248ZM1026.75 464.248C1022.97 464.248 1019.36 463.656 1015.9 462.472C1012.44 461.256 1009.42 459.528 1006.83 457.288C1004.24 455.016 1002.36 452.312 1001.21 449.176L1014.75 444.184C1015.07 445.112 1015.77 446.008 1016.86 446.872C1017.98 447.736 1019.39 448.456 1021.08 449.032C1022.78 449.576 1024.67 449.848 1026.75 449.848C1028.67 449.848 1030.48 449.576 1032.17 449.032C1033.87 448.456 1035.24 447.672 1036.3 446.68C1037.36 445.688 1037.88 444.536 1037.88 443.224C1037.88 441.88 1037.32 440.776 1036.2 439.912C1035.12 439.016 1033.71 438.312 1031.98 437.8C1030.28 437.256 1028.54 436.856 1026.75 436.6C1021.88 435.896 1017.52 434.744 1013.64 433.144C1009.8 431.512 1006.76 429.272 1004.52 426.424C1002.32 423.576 1001.21 419.96 1001.21 415.576C1001.21 411.384 1002.4 407.72 1004.76 404.584C1007.13 401.416 1010.25 398.952 1014.12 397.192C1018.03 395.432 1022.24 394.552 1026.75 394.552C1030.52 394.552 1034.14 395.16 1037.6 396.376C1041.08 397.56 1044.12 399.288 1046.72 401.56C1049.31 403.832 1051.16 406.552 1052.28 409.72L1038.75 414.616C1038.43 413.688 1037.71 412.808 1036.59 411.976C1035.5 411.112 1034.11 410.408 1032.41 409.864C1030.72 409.32 1028.83 409.048 1026.75 409.048C1024.89 409.016 1023.12 409.288 1021.42 409.864C1019.72 410.44 1018.33 411.224 1017.24 412.216C1016.16 413.208 1015.61 414.328 1015.61 415.576C1015.61 417.304 1016.12 418.6 1017.15 419.464C1018.17 420.296 1019.52 420.888 1021.18 421.24C1022.88 421.592 1024.73 421.912 1026.75 422.2C1031.36 422.872 1035.6 424.072 1039.47 425.8C1043.34 427.528 1046.44 429.832 1048.78 432.712C1051.12 435.592 1052.28 439.096 1052.28 443.224C1052.28 447.416 1051.1 451.096 1048.73 454.264C1046.4 457.4 1043.29 459.848 1039.42 461.608C1035.55 463.368 1031.32 464.248 1026.75 464.248ZM1102.6 395.8H1118.82L1143.2 463H1127.94L1124.1 452.44H1097.32L1093.48 463H1078.21L1102.6 395.8ZM1102.6 438.04H1118.82L1110.66 415.768L1102.6 438.04ZM1147.94 463V395.8H1163.49L1188.07 436.984V395.8H1202.47V463H1186.91L1162.34 421.816V463H1147.94ZM1211.15 463V395.8H1233.42C1238.06 395.8 1242.4 396.68 1246.43 398.44C1250.5 400.168 1254.06 402.584 1257.14 405.688C1260.24 408.76 1262.66 412.328 1264.38 416.392C1266.14 420.424 1267.02 424.76 1267.02 429.4C1267.02 434.04 1266.14 438.392 1264.38 442.456C1262.66 446.488 1260.24 450.056 1257.14 453.16C1254.06 456.232 1250.5 458.648 1246.43 460.408C1242.4 462.136 1238.06 463 1233.42 463H1211.15ZM1225.55 448.6H1233.42C1236.02 448.6 1238.46 448.104 1240.77 447.112C1243.07 446.12 1245.12 444.744 1246.91 442.984C1248.7 441.224 1250.1 439.192 1251.09 436.888C1252.11 434.552 1252.62 432.056 1252.62 429.4C1252.62 426.744 1252.11 424.264 1251.09 421.96C1250.1 419.656 1248.7 417.624 1246.91 415.864C1245.15 414.072 1243.12 412.68 1240.82 411.688C1238.51 410.696 1236.05 410.2 1233.42 410.2H1225.55V448.6ZM278.818 578V510.8H321.634V525.2H293.218V534.8H315.106V549.2H293.218V563.6H321.634V578H278.818ZM326.402 578L350.978 544.208L326.69 510.8H344.45L359.906 532.016L375.362 510.8H393.122L368.834 544.208L393.41 578H375.554L359.906 556.496L344.258 578H326.402ZM399.152 578V510.8H424.496C428.176 510.8 431.504 511.744 434.48 513.632C437.488 515.488 439.872 517.984 441.632 521.12C443.392 524.224 444.272 527.632 444.272 531.344C444.272 535.12 443.36 538.56 441.536 541.664C439.744 544.768 437.344 547.248 434.336 549.104C431.328 550.96 428.048 551.888 424.496 551.888H413.552V578H399.152ZM413.552 537.488H422.864C424.144 537.488 425.312 537.168 426.368 536.528C427.424 535.856 428.272 534.976 428.912 533.888C429.552 532.8 429.872 531.6 429.872 530.288C429.872 528.976 429.552 527.776 428.912 526.688C428.272 525.6 427.424 524.736 426.368 524.096C425.312 523.424 424.144 523.088 422.864 523.088H413.552V537.488ZM449.616 578V510.8H492.432V525.2H464.016V534.8H485.904V549.2H464.016V563.6H492.432V578H449.616ZM500.079 578V510.8H527.439C531.119 510.8 534.447 511.728 537.423 513.584C540.399 515.44 542.751 517.936 544.479 521.072C546.239 524.176 547.119 527.6 547.119 531.344C547.119 534.224 546.639 536.912 545.679 539.408C544.719 541.872 543.343 544.064 541.551 545.984C539.791 547.872 537.711 549.392 535.311 550.544L551.247 578H534.639L519.471 551.888H514.479V578H500.079ZM514.479 537.488H525.711C526.991 537.488 528.159 537.168 529.215 536.528C530.271 535.856 531.119 534.976 531.759 533.888C532.399 532.8 532.719 531.6 532.719 530.288C532.719 528.976 532.399 527.776 531.759 526.688C531.119 525.6 530.271 524.736 529.215 524.096C528.159 523.424 526.991 523.088 525.711 523.088H514.479V537.488ZM606.017 510.8V525.2H586.817V578H572.417V525.2H553.217V510.8H606.017ZM657.484 579.248C653.708 579.248 650.092 578.656 646.636 577.472C643.18 576.256 640.156 574.528 637.564 572.288C634.972 570.016 633.1 567.312 631.948 564.176L645.484 559.184C645.804 560.112 646.508 561.008 647.596 561.872C648.716 562.736 650.124 563.456 651.82 564.032C653.516 564.576 655.404 564.848 657.484 564.848C659.404 564.848 661.212 564.576 662.908 564.032C664.604 563.456 665.98 562.672 667.036 561.68C668.092 560.688 668.62 559.536 668.62 558.224C668.62 556.88 668.06 555.776 666.94 554.912C665.852 554.016 664.444 553.312 662.716 552.8C661.02 552.256 659.276 551.856 657.484 551.6C652.62 550.896 648.252 549.744 644.38 548.144C640.54 546.512 637.5 544.272 635.26 541.424C633.052 538.576 631.948 534.96 631.948 530.576C631.948 526.384 633.132 522.72 635.5 519.584C637.868 516.416 640.988 513.952 644.86 512.192C648.764 510.432 652.972 509.552 657.484 509.552C661.26 509.552 664.876 510.16 668.332 511.376C671.82 512.56 674.86 514.288 677.452 516.56C680.044 518.832 681.9 521.552 683.02 524.72L669.484 529.616C669.164 528.688 668.444 527.808 667.324 526.976C666.236 526.112 664.844 525.408 663.148 524.864C661.452 524.32 659.564 524.048 657.484 524.048C655.628 524.016 653.852 524.288 652.156 524.864C650.46 525.44 649.068 526.224 647.98 527.216C646.892 528.208 646.348 529.328 646.348 530.576C646.348 532.304 646.86 533.6 647.884 534.464C648.908 535.296 650.252 535.888 651.916 536.24C653.612 536.592 655.468 536.912 657.484 537.2C662.092 537.872 666.332 539.072 670.204 540.8C674.076 542.528 677.18 544.832 679.516 547.712C681.852 550.592 683.02 554.096 683.02 558.224C683.02 562.416 681.836 566.096 679.468 569.264C677.132 572.4 674.028 574.848 670.156 576.608C666.284 578.368 662.06 579.248 657.484 579.248ZM739.689 510.8V525.2H720.489V578H706.089V525.2H686.889V510.8H739.689ZM746.398 578V510.8H773.758C777.438 510.8 780.766 511.728 783.742 513.584C786.718 515.44 789.07 517.936 790.798 521.072C792.558 524.176 793.438 527.6 793.438 531.344C793.438 534.224 792.958 536.912 791.998 539.408C791.038 541.872 789.662 544.064 787.87 545.984C786.11 547.872 784.03 549.392 781.63 550.544L797.566 578H780.958L765.79 551.888H760.798V578H746.398ZM760.798 537.488H772.03C773.31 537.488 774.478 537.168 775.534 536.528C776.59 535.856 777.438 534.976 778.078 533.888C778.718 532.8 779.038 531.6 779.038 530.288C779.038 528.976 778.718 527.776 778.078 526.688C777.438 525.6 776.59 524.736 775.534 524.096C774.478 523.424 773.31 523.088 772.03 523.088H760.798V537.488ZM823.357 510.8H839.581L863.965 578H848.701L844.861 567.44H818.077L814.237 578H798.973L823.357 510.8ZM823.357 553.04H839.581L831.421 530.768L823.357 553.04ZM911.893 510.8V525.2H892.693V578H878.293V525.2H859.093V510.8H911.893ZM918.602 578V510.8H961.418V525.2H933.002V534.8H954.89V549.2H933.002V563.6H961.418V578H918.602ZM1000.17 579.248C995.466 579.248 991.098 578.336 987.066 576.512C983.066 574.688 979.578 572.176 976.602 568.976C973.626 565.744 971.306 562.016 969.642 557.792C967.978 553.568 967.146 549.072 967.146 544.304C967.146 539.152 968.058 534.464 969.882 530.24C971.738 526.016 974.234 522.368 977.37 519.296C980.538 516.192 984.106 513.808 988.074 512.144C992.074 510.48 996.202 509.648 1000.46 509.648C1005.13 509.648 1009.74 510.736 1014.28 512.912C1018.83 515.088 1022.92 518.608 1026.57 523.472L1013.71 530.384C1011.75 528.176 1009.61 526.56 1007.27 525.536C1004.97 524.48 1002.63 523.952 1000.27 523.952C997.866 523.952 995.546 524.448 993.306 525.44C991.066 526.432 989.066 527.84 987.306 529.664C985.546 531.488 984.138 533.664 983.082 536.192C982.058 538.72 981.546 541.52 981.546 544.592C981.546 547.408 982.026 550.048 982.986 552.512C983.978 554.976 985.338 557.136 987.066 558.992C988.794 560.816 990.794 562.256 993.066 563.312C995.338 564.336 997.77 564.848 1000.36 564.848C1001.83 564.848 1003.29 564.656 1004.73 564.272C1006.2 563.856 1007.63 563.248 1009 562.448C1010.38 561.648 1011.67 560.624 1012.89 559.376C1014.11 558.128 1015.21 556.656 1016.2 554.96H1007.18V542.48H1033.19C1033.45 547.504 1032.76 552.24 1031.13 556.688C1029.53 561.104 1027.21 565.008 1024.17 568.4C1021.13 571.792 1017.56 574.448 1013.47 576.368C1009.37 578.288 1004.94 579.248 1000.17 579.248ZM1040 578V510.8H1054.4V578H1040ZM1064.46 578V510.8H1107.28V525.2H1078.86V534.8H1100.75V549.2H1078.86V563.6H1107.28V578H1064.46ZM1139.5 579.248C1135.73 579.248 1132.11 578.656 1128.65 577.472C1125.2 576.256 1122.17 574.528 1119.58 572.288C1116.99 570.016 1115.12 567.312 1113.97 564.176L1127.5 559.184C1127.82 560.112 1128.53 561.008 1129.61 561.872C1130.73 562.736 1132.14 563.456 1133.84 564.032C1135.53 564.576 1137.42 564.848 1139.5 564.848C1141.42 564.848 1143.23 564.576 1144.93 564.032C1146.62 563.456 1148 562.672 1149.05 561.68C1150.11 560.688 1150.64 559.536 1150.64 558.224C1150.64 556.88 1150.08 555.776 1148.96 554.912C1147.87 554.016 1146.46 553.312 1144.73 552.8C1143.04 552.256 1141.29 551.856 1139.5 551.6C1134.64 550.896 1130.27 549.744 1126.4 548.144C1122.56 546.512 1119.52 544.272 1117.28 541.424C1115.07 538.576 1113.97 534.96 1113.97 530.576C1113.97 526.384 1115.15 522.72 1117.52 519.584C1119.89 516.416 1123.01 513.952 1126.88 512.192C1130.78 510.432 1134.99 509.552 1139.5 509.552C1143.28 509.552 1146.89 510.16 1150.35 511.376C1153.84 512.56 1156.88 514.288 1159.47 516.56C1162.06 518.832 1163.92 521.552 1165.04 524.72L1151.5 529.616C1151.18 528.688 1150.46 527.808 1149.34 526.976C1148.25 526.112 1146.86 525.408 1145.17 524.864C1143.47 524.32 1141.58 524.048 1139.5 524.048C1137.65 524.016 1135.87 524.288 1134.17 524.864C1132.48 525.44 1131.09 526.224 1130 527.216C1128.91 528.208 1128.37 529.328 1128.37 530.576C1128.37 532.304 1128.88 533.6 1129.9 534.464C1130.93 535.296 1132.27 535.888 1133.93 536.24C1135.63 536.592 1137.49 536.912 1139.5 537.2C1144.11 537.872 1148.35 539.072 1152.22 540.8C1156.09 542.528 1159.2 544.832 1161.53 547.712C1163.87 550.592 1165.04 554.096 1165.04 558.224C1165.04 562.416 1163.85 566.096 1161.49 569.264C1159.15 572.4 1156.05 574.848 1152.17 576.608C1148.3 578.368 1144.08 579.248 1139.5 579.248Z" fill="white"/>
<circle cx="1060.5" cy="439.5" r="113.5" fill="white" stroke="#156AD4" stroke-width="12"/>
<path d="M1009.3 445V431H1012.3V442H1017.8V445H1009.3ZM1020 445V431H1028.92V434H1023V436H1027.56V439H1023V442H1028.92V445H1020ZM1041.71 431V434H1037.71V445H1034.71V434H1030.71V431H1041.71ZM1042.91 436.22L1043.53 431H1046.53L1044.91 436.22H1042.91ZM1053.46 445.26C1052.67 445.26 1051.92 445.137 1051.2 444.89C1050.48 444.637 1049.85 444.277 1049.31 443.81C1048.77 443.337 1048.38 442.773 1048.14 442.12L1050.96 441.08C1051.03 441.273 1051.17 441.46 1051.4 441.64C1051.63 441.82 1051.93 441.97 1052.28 442.09C1052.63 442.203 1053.03 442.26 1053.46 442.26C1053.86 442.26 1054.24 442.203 1054.59 442.09C1054.94 441.97 1055.23 441.807 1055.45 441.6C1055.67 441.393 1055.78 441.153 1055.78 440.88C1055.78 440.6 1055.66 440.37 1055.43 440.19C1055.2 440.003 1054.91 439.857 1054.55 439.75C1054.2 439.637 1053.83 439.553 1053.46 439.5C1052.45 439.353 1051.54 439.113 1050.73 438.78C1049.93 438.44 1049.3 437.973 1048.83 437.38C1048.37 436.787 1048.14 436.033 1048.14 435.12C1048.14 434.247 1048.39 433.483 1048.88 432.83C1049.37 432.17 1050.02 431.657 1050.83 431.29C1051.64 430.923 1052.52 430.74 1053.46 430.74C1054.25 430.74 1055 430.867 1055.72 431.12C1056.45 431.367 1057.08 431.727 1057.62 432.2C1058.16 432.673 1058.55 433.24 1058.78 433.9L1055.96 434.92C1055.89 434.727 1055.74 434.543 1055.51 434.37C1055.28 434.19 1054.99 434.043 1054.64 433.93C1054.29 433.817 1053.89 433.76 1053.46 433.76C1053.07 433.753 1052.7 433.81 1052.35 433.93C1052 434.05 1051.71 434.213 1051.48 434.42C1051.25 434.627 1051.14 434.86 1051.14 435.12C1051.14 435.48 1051.25 435.75 1051.46 435.93C1051.67 436.103 1051.95 436.227 1052.3 436.3C1052.65 436.373 1053.04 436.44 1053.46 436.5C1054.42 436.64 1055.3 436.89 1056.11 437.25C1056.92 437.61 1057.56 438.09 1058.05 438.69C1058.54 439.29 1058.78 440.02 1058.78 440.88C1058.78 441.753 1058.53 442.52 1058.04 443.18C1057.55 443.833 1056.91 444.343 1056.1 444.71C1055.29 445.077 1054.41 445.26 1053.46 445.26ZM1076.38 431V434H1072.38V445H1069.38V434H1065.38V431H1076.38ZM1081.05 431H1084.43L1089.51 445H1086.33L1085.53 442.8H1079.95L1079.15 445H1075.97L1081.05 431ZM1081.05 439.8H1084.43L1082.73 435.16L1081.05 439.8ZM1091.09 445V431H1094.09V442H1099.59V445H1091.09ZM1112.7 445H1108.78L1105.2 439.94L1104.8 440.42V445H1101.8V431H1104.8V435.76L1108.78 431H1112.7L1107.16 437.6L1112.7 445Z" fill="#156AD4"/>
</g>
<defs>
<clipPath id="clip0_36_1571">
<rect width="1440" height="744" fill="white"/>
</clipPath>
</defs>
</svg>
