<svg width="36" height="36" viewBox="0 0 36 36" fill="none" xmlns="http://www.w3.org/2000/svg">
  <path opacity="0.97" d="M24.285 3H11.715C6.255 3 3 6.255 3 11.715V24.27C3 29.745 6.255 33 11.715 33H24.27C29.73 33 32.985 29.745 32.985 24.285V11.715C33 6.255 29.745 3 24.285 3ZM12.465 24.465C11.385 24.465 10.5 23.58 10.5 22.5C10.5 21.42 11.385 20.535 12.465 20.535C13.545 20.535 14.43 21.42 14.43 22.5C14.43 23.58 13.545 24.465 12.465 24.465ZM18 15.465C16.92 15.465 16.035 14.58 16.035 13.5C16.035 12.42 16.92 11.535 18 11.535C19.08 11.535 19.965 12.42 19.965 13.5C19.965 14.58 19.08 15.465 18 15.465ZM23.535 24.465C22.455 24.465 21.57 23.58 21.57 22.5C21.57 21.42 22.455 20.535 23.535 20.535C24.615 20.535 25.5 21.42 25.5 22.5C25.5 23.58 24.615 24.465 23.535 24.465Z" fill="#FF772A" />
</svg>
