<svg width="213" height="17" viewBox="0 0 213 17" fill="none" xmlns="http://www.w3.org/2000/svg">
<path d="M14 8.60547V3H16.7959V8.60547H14ZM0 17V0.204102H14V3H5.59863V8.60547H14V11.4014H5.59863V17H0Z" fill="#222222"/>
<path d="M19.6055 17V14.2041H25.2041V3H19.6055V0.204102H36.4014V3H30.8027V14.2041H36.4014V17H19.6055Z" fill="#222222"/>
<path d="M53.2109 17V14.2041H56.0068V17H53.2109ZM50.4082 14.2041V11.4014H53.2109V14.2041H50.4082ZM50.4082 5.80273V3H53.2109V5.80273H50.4082ZM39.2109 17V14.2041H42.0068V11.4014H44.8096V5.80273H42.0068V3H39.2109V0.204102H44.8096V3H47.6055V5.80273H50.4082V11.4014H47.6055V14.2041H44.8096V17H39.2109ZM53.2109 3V0.204102H56.0068V3H53.2109Z" fill="#222222"/>
<path d="M58.8164 17V0.204102H75.6123V3H64.415V5.80273H72.8164V8.60547H64.415V14.2041H75.6123V17H58.8164Z" fill="#222222"/>
<path d="M78.4219 17V0.204102H84.0205V14.2041H95.2178V17H78.4219Z" fill="#222222"/>
<path d="M106.422 5.80273V3H109.225V5.80273H106.422ZM98.0273 17V0.204102H106.422V3H103.626V17H98.0273ZM112.027 17V3H109.225V0.204102H114.823V17H112.027Z" fill="#222222"/>
<path d="M117.633 17V3H120.429V0.204102H131.633V3H123.231V5.80273H131.633V3H134.429V17H131.633V8.60547H123.231V17H117.633Z" fill="#222222"/>
<path d="M140.034 17V14.2041H137.238V3H140.034V0.204102H154.034V3H142.837V14.2041H151.238V11.4014H148.436V8.60547H154.034V17H140.034Z" fill="#222222"/>
<path d="M165.238 11.4014V5.80273H168.041V11.4014H165.238ZM156.844 17V0.204102H165.238V5.80273H162.442V17H156.844ZM168.041 17V11.4014H170.844V0.204102H173.64V17H168.041Z" fill="#222222"/>
<path d="M176.449 17V0.204102H193.245V3H182.048V5.80273H190.449V8.60547H182.048V14.2041H193.245V17H176.449Z" fill="#222222"/>
<path d="M201.653 17V3H196.055V0.204102H212.851V3H207.252V17H201.653Z" fill="#222222"/>
</svg>
