<svg width="56" height="56" viewBox="0 0 56 56" fill="none" xmlns="http://www.w3.org/2000/svg">
  <path d="M18.8765 27.1366H7.93317C8.11984 16.24 10.2665 14.4433 16.9632 10.4766C17.7332 10.01 17.9898 9.02997 17.5232 8.23664C17.0798 7.46664 16.0765 7.20997 15.3065 7.67664C7.41984 12.3433 4.6665 15.19 4.6665 28.7466V41.3233C4.6665 45.3133 7.90984 48.5333 11.8765 48.5333H18.8765C22.9832 48.5333 26.0865 45.43 26.0865 41.3233V34.3233C26.0865 30.24 22.9832 27.1366 18.8765 27.1366Z" fill="#FF772A" />
  <path d="M44.1235 27.1366H33.1801C33.3668 16.24 35.5135 14.4433 42.2101 10.4766C42.9801 10.01 43.2368 9.02997 42.7701 8.23664C42.3035 7.46664 41.3235 7.20997 40.5301 7.67664C32.6435 12.3433 29.8901 15.19 29.8901 28.77V41.3466C29.8901 45.3366 33.1335 48.5566 37.1001 48.5566H44.1001C48.2068 48.5566 51.3101 45.4533 51.3101 41.3466V34.3466C51.3335 30.24 48.2301 27.1366 44.1235 27.1366Z" fill="#FF772A" />
</svg>
